<?xml version="1.0" encoding="UTF-8" standalone="no"?>
<!-- Created with Inkscape (http://www.inkscape.org/) -->

<svg
   xmlns:dc="http://purl.org/dc/elements/1.1/"
   xmlns:cc="http://creativecommons.org/ns#"
   xmlns:rdf="http://www.w3.org/1999/02/22-rdf-syntax-ns#"
   xmlns:svg="http://www.w3.org/2000/svg"
   xmlns="http://www.w3.org/2000/svg"
   xmlns:sodipodi="http://sodipodi.sourceforge.net/DTD/sodipodi-0.dtd"
   xmlns:inkscape="http://www.inkscape.org/namespaces/inkscape"
   width="210mm"
   height="297mm"
   viewBox="0 0 210 297"
   version="1.1"
   id="svg7658"
   inkscape:version="0.92.4 (5da689c313, 2019-01-14)"
   sodipodi:docname="cluebox.svg">
  <defs
     id="defs7652" />
  <sodipodi:namedview
     id="base"
     pagecolor="#ffffff"
     bordercolor="#666666"
     borderopacity="1.0"
     inkscape:pageopacity="0.0"
     inkscape:pageshadow="2"
     inkscape:zoom="0.49497475"
     inkscape:cx="308.10222"
     inkscape:cy="592.60922"
     inkscape:document-units="mm"
     inkscape:current-layer="layer1"
     showgrid="false"
     inkscape:snap-bbox="true"
     inkscape:window-width="1527"
     inkscape:window-height="1048"
     inkscape:window-x="-7"
     inkscape:window-y="0"
     inkscape:window-maximized="0"
     inkscape:bbox-paths="true"
     inkscape:bbox-nodes="true"
     inkscape:snap-bbox-edge-midpoints="true"
     inkscape:snap-bbox-midpoints="true"
     inkscape:snap-page="true"
     inkscape:snap-global="false" />
  <metadata
     id="metadata7655">
    <rdf:RDF>
      <cc:Work
         rdf:about="">
        <dc:format>image/svg+xml</dc:format>
        <dc:type
           rdf:resource="http://purl.org/dc/dcmitype/StillImage" />
        <dc:title />
      </cc:Work>
    </rdf:RDF>
  </metadata>
  <g
     inkscape:label="Layer 1"
     inkscape:groupmode="layer"
     id="layer1">
    <path
       style="fill:none;fill-opacity:1;stroke:#000000;stroke-width:0.1;stroke-miterlimit:4;stroke-dasharray:none;stroke-opacity:1"
       d="m 10.054167,98.058333 h 16.800006 v -6.8 l -6.9,-0.116061 v -2.613105 h 1.4 v -6.6 H 15.55417 v 6.6 h 1.400001 v 2.729166 h -6.900004 z"
       id="rect8203"
       inkscape:connector-curvature="0"
       sodipodi:nodetypes="ccccccccccccc" />
    <path
       style="fill:none;fill-opacity:1;stroke:#000000;stroke-width:0.1;stroke-miterlimit:4;stroke-dasharray:none;stroke-opacity:1"
       d="m 28.441674,98.058333 h 16.8 v -6.8 l -6.9,-0.116061 v -2.613105 h 1.4 v -10.8 h -5.8 v 10.8 h 1.4 v 2.729166 h -6.9 z"
       id="rect8203-9"
       inkscape:connector-curvature="0"
       sodipodi:nodetypes="ccccccccccccc" />
    <path
       style="fill:none;fill-opacity:1;stroke:#000000;stroke-width:0.1;stroke-miterlimit:4;stroke-dasharray:none;stroke-opacity:1"
       d="m 46.829175,98.058333 h 16.800001 v -6.8 l -6.9,-0.116061 v -2.613105 h 1.4 v -19 h -5.800001 v 19 h 1.4 v 2.729166 h -6.9 z"
       id="rect8203-9-5"
       inkscape:connector-curvature="0"
       sodipodi:nodetypes="ccccccccccccc" />
    <path
       style="fill:none;fill-opacity:1;stroke:#000000;stroke-width:0.1;stroke-miterlimit:4;stroke-dasharray:none;stroke-opacity:1"
       d="m 65.216677,98.058332 h 16.800001 v -6.799999 l -6.9,-0.116061 v -2.613105 h 1.4 v -22.8 h -5.800001 v 22.8 h 1.4 v 2.729166 h -6.9 z"
       id="rect8203-9-5-7"
       inkscape:connector-curvature="0"
       sodipodi:nodetypes="ccccccccccccc" />
    <path
       style="fill:none;fill-opacity:1;stroke:#000000;stroke-width:0.1;stroke-miterlimit:4;stroke-dasharray:none;stroke-opacity:1"
       d="m 83.604179,98.058323 h 16.800001 v -6.79999 l -6.9,-0.11606 v -2.613106 h 1.4 v -15 h -5.800001 v 15 h 1.4 v 2.729166 h -6.9 z"
       id="rect8203-9-5-7-7"
       inkscape:connector-curvature="0"
       sodipodi:nodetypes="ccccccccccccc" />
    <circle
       style="fill:none;fill-opacity:1;stroke:#000000;stroke-width:0.1;stroke-miterlimit:4;stroke-dasharray:none;stroke-opacity:1"
       id="path8266"
       cx="18.473154"
       cy="85.116707"
       r="1.25" />
    <circle
       style="fill:none;fill-opacity:1;stroke:#000000;stroke-width:0.1;stroke-miterlimit:4;stroke-dasharray:none;stroke-opacity:1"
       id="path8266-0"
       cx="36.798424"
       cy="80.573128"
       r="1.25" />
    <circle
       style="fill:none;fill-opacity:1;stroke:#000000;stroke-width:0.1;stroke-miterlimit:4;stroke-dasharray:none;stroke-opacity:1"
       id="path8266-8"
       cx="36.798424"
       cy="85.183533"
       r="1.25" />
    <circle
       style="fill:none;fill-opacity:1;stroke:#000000;stroke-width:0.1;stroke-miterlimit:4;stroke-dasharray:none;stroke-opacity:1"
       id="path8266-87"
       cx="55.157085"
       cy="73.546562"
       r="1.25" />
    <circle
       style="fill:none;fill-opacity:1;stroke:#000000;stroke-width:0.1;stroke-miterlimit:4;stroke-dasharray:none;stroke-opacity:1"
       id="path8266-4"
       cx="55.157085"
       cy="77.864349"
       r="1.25" />
    <circle
       style="fill:none;fill-opacity:1;stroke:#000000;stroke-width:0.1;stroke-miterlimit:4;stroke-dasharray:none;stroke-opacity:1"
       id="path8266-47"
       cx="55.157085"
       cy="82.182114"
       r="1.25" />
    <circle
       style="fill:none;fill-opacity:1;stroke:#000000;stroke-width:0.1;stroke-miterlimit:4;stroke-dasharray:none;stroke-opacity:1"
       id="path8266-1"
       cx="73.515747"
       cy="70.267136"
       r="1.25" />
    <circle
       style="fill:none;fill-opacity:1;stroke:#000000;stroke-width:0.1;stroke-miterlimit:4;stroke-dasharray:none;stroke-opacity:1"
       id="path8266-3"
       cx="73.515747"
       cy="73.993797"
       r="1.25" />
    <circle
       style="fill:none;fill-opacity:1;stroke:#000000;stroke-width:0.1;stroke-miterlimit:4;stroke-dasharray:none;stroke-opacity:1"
       id="path8266-88"
       cx="73.515747"
       cy="77.720451"
       r="1.25" />
    <circle
       style="fill:none;fill-opacity:1;stroke:#000000;stroke-width:0.1;stroke-miterlimit:4;stroke-dasharray:none;stroke-opacity:1"
       id="path8266-6"
       cx="73.515747"
       cy="81.447121"
       r="1.25" />
    <circle
       style="fill:none;fill-opacity:1;stroke:#000000;stroke-width:0.1;stroke-miterlimit:4;stroke-dasharray:none;stroke-opacity:1"
       id="path8266-01"
       cx="91.072609"
       cy="75.561829"
       r="1.25" />
    <circle
       style="fill:none;fill-opacity:1;stroke:#000000;stroke-width:0.1;stroke-miterlimit:4;stroke-dasharray:none;stroke-opacity:1"
       id="path8266-66"
       cx="93.077126"
       cy="78.117584"
       r="1.25" />
    <circle
       style="fill:none;fill-opacity:1;stroke:#000000;stroke-width:0.1;stroke-miterlimit:4;stroke-dasharray:none;stroke-opacity:1"
       id="path8266-7"
       cx="91.072609"
       cy="80.673355"
       r="1.25" />
    <circle
       style="fill:none;fill-opacity:1;stroke:#000000;stroke-width:0.1;stroke-miterlimit:4;stroke-dasharray:none;stroke-opacity:1"
       id="path8266-5"
       cx="93.077126"
       cy="83.229118"
       r="1.25" />
    <circle
       style="fill:none;fill-opacity:1;stroke:#000000;stroke-width:0.1;stroke-miterlimit:4;stroke-dasharray:none;stroke-opacity:1"
       id="path8266-9"
       cx="91.072601"
       cy="85.784889"
       r="1.25" />
    <path
       style="fill:none;fill-opacity:1;stroke:#000000;stroke-width:0.1;stroke-miterlimit:4;stroke-dasharray:none;stroke-opacity:1"
       d="m 17.764881,44.403867 h 6.8 v 2.1 h 85.999999 v 3.8 h -2.8 v 3.8 H 87.964881 v -2.8 h -3.8 v 2.8 h -2.2 v -2.8 h -3.8 v 2.8 h -2.4 v -2.8 h -3.8 v 2.8 h -2.4 v -2.8 h -3.8 v 2.8 h -2.4 v -2.8 h -3.8 v 2.8 h -2.4 v -2.8 h -3.8 v 2.8 h -2.4 v -2.8 h -3.8 v 2.8 h -22.6 v 2.1 h -6.75 z"
       id="rect8361"
       inkscape:connector-curvature="0"
       sodipodi:nodetypes="ccccccccccccccccccccccccccccccccccccccc" />
    <text
       xml:space="preserve"
       style="font-style:normal;font-variant:normal;font-weight:normal;font-stretch:normal;font-size:10.58333302px;line-height:1.25;font-family:Webdings;-inkscape-font-specification:Webdings;letter-spacing:0px;word-spacing:0px;fill:#000000;fill-opacity:1;stroke:none;stroke-width:0.26458332"
       x="18.976137"
       y="233.12257"
       id="text8366"><tspan
         sodipodi:role="line"
         id="tspan8364"
         x="18.976137"
         y="242.9101"
         style="stroke-width:0.26458332" /></text>
    <text
       xml:space="preserve"
       style="font-style:normal;font-variant:normal;font-weight:normal;font-stretch:normal;font-size:4.61013794px;line-height:1.25;font-family:Webdings;-inkscape-font-specification:Webdings;letter-spacing:0px;word-spacing:0px;fill:#000000;fill-opacity:1;stroke:none;stroke-width:0.11525344"
       x="22.254663"
       y="44.54554"
       id="text8370"
       transform="scale(0.85241514,1.1731373)"><tspan
         sodipodi:role="line"
         id="tspan8368"
         x="22.254663"
         y="44.54554"
         style="stroke-width:0.11525344">🡸</tspan></text>
    <path
       style="fill:none;fill-opacity:1;stroke:#000000;stroke-width:0.1;stroke-miterlimit:4;stroke-dasharray:none;stroke-opacity:1"
       d="m 6.1299127,173.48926 h 6.8500043 v 3.2 h 82.900014 v 5.7 h 3.10002 v 4 h -3.10002 v 2.1 H 85.579919 v -3 h -0.6 v -2.6 h -4 v 5.6 h -8.6 v -3 h -0.6 v -2.6 h -4 v 5.6 h -8.8 v -3 h -0.6 v -2.6 h -4 v 5.64538 l -8.6,-0.0454 v -3 h -0.6 v -2.6 h -4 v 5.6 H 12.929918 v 3.20002 H 6.1799127 Z"
       id="rect8361-8"
       inkscape:connector-curvature="0"
       sodipodi:nodetypes="ccccccccccccccccccccccccccccccccccccc" />
    <text
       xml:space="preserve"
       style="font-style:normal;font-variant:normal;font-weight:normal;font-stretch:normal;font-size:4.61013794px;line-height:1.25;font-family:Webdings;-inkscape-font-specification:Webdings;letter-spacing:0px;word-spacing:0px;fill:#000000;fill-opacity:1;stroke:none;stroke-width:0.11525344"
       x="8.6052418"
       y="156.88678"
       id="text8370-0"
       transform="scale(0.85241514,1.1731373)"><tspan
         sodipodi:role="line"
         id="tspan8368-7"
         x="8.6052418"
         y="156.88678"
         style="stroke-width:0.11525344">🡸</tspan></text>
    <path
       style="fill:none;fill-opacity:1;stroke:#000000;stroke-width:0.1;stroke-miterlimit:4;stroke-dasharray:none;stroke-opacity:1"
       d="m 116.79678,115.12258 h 6.7 v 3.1 h 40.9 v 2 h 4.20175 l -0.004,-2 h 1.90175 v 2 h 4.2 v -2 h 1.9 v 2 h 4.2 v -2 h 1.9 v 2 h 4.2 v -2 h 1.9 v 5.5 h 4.2 v -5.5 h 1.9 v 2 h 4.2 v -2 h 3 v -3.1 h 4.9 l -0.14978,14.9 h -21.42522 v 4 h -5.8 v -4 h -56.125 v 3.05 l -6.7,0.05 z"
       id="rect8361-0"
       inkscape:connector-curvature="0"
       sodipodi:nodetypes="ccccccccccccccccccccccccccccccccccccccc" />
    <text
       xml:space="preserve"
       style="font-style:normal;font-variant:normal;font-weight:normal;font-stretch:normal;font-size:10.58333302px;line-height:1.25;font-family:Gadugi;-inkscape-font-specification:Gadugi;text-align:center;letter-spacing:0px;word-spacing:0px;text-anchor:middle;fill:#000000;fill-opacity:1;stroke:none;stroke-width:0.26458332"
       x="155.82283"
       y="127.28924"
       id="text4569"><tspan
         sodipodi:role="line"
         id="tspan4567"
         x="155.82283"
         y="127.28924"
         style="stroke-width:0.26458332">2</tspan></text>
    <path
       style="fill:none;fill-opacity:1;stroke:#000000;stroke-width:0.1;stroke-miterlimit:4;stroke-dasharray:none;stroke-opacity:1"
       d="m 117.05367,53.961273 h 6.7 v 3.1 h 40.9 v 2 h 4.20175 l -0.004,-2 h 1.90175 v 2 h 4.2 v -2 h 1.9 v 5.50031 h 4.2 v -5.50031 h 1.90001 v 2 h 4.19999 v -2 h 1.9 v 2 h 4.2 v -2 h 1.9 v 2 h 4.2 v -2 h 3 v -3.1 h 4.90001 l -0.14979,14.9 h -18.25022 v 4 h -5.8 v -4 h -59.2995 v 3.05 l -6.7,0.05 z"
       id="rect8361-0-1"
       inkscape:connector-curvature="0"
       sodipodi:nodetypes="ccccccccccccccccccccccccccccccccccccccc" />
    <text
       xml:space="preserve"
       style="font-style:normal;font-variant:normal;font-weight:normal;font-stretch:normal;font-size:10.58333302px;line-height:1.25;font-family:Gadugi;-inkscape-font-specification:Gadugi;text-align:center;letter-spacing:0px;word-spacing:0px;text-anchor:middle;fill:#000000;fill-opacity:1;stroke:none;stroke-width:0.26458332"
       x="156.07971"
       y="66.127922"
       id="text4569-1"><tspan
         sodipodi:role="line"
         id="tspan4567-9"
         x="156.07971"
         y="66.127922"
         style="stroke-width:0.26458332">1</tspan></text>
    <path
       style="fill:none;fill-opacity:1;stroke:#000000;stroke-width:0.1;stroke-miterlimit:4;stroke-dasharray:none;stroke-opacity:1"
       d="m 116.86508,76.674343 h 6.7 v 3.1 h 40.9 v 2 h 4.20175 l -0.004,-2 h 1.90175 v 2 h 4.2 v -2 h 1.9 v 2 h 4.2 v -2 h 1.9 v 5.5 h 4.2 v -5.5 h 1.9 v 2 h 4.2 v -2 h 1.9 v 2 h 4.2 v -2 h 3 v -3.1 h 4.9 l -0.14978,14.9 h -23.54188 v 4 h -5.8 v -4 h -54.00834 v 3.05 l -6.7,0.05 z"
       id="rect8361-0-8"
       inkscape:connector-curvature="0"
       sodipodi:nodetypes="ccccccccccccccccccccccccccccccccccccccc" />
    <text
       xml:space="preserve"
       style="font-style:normal;font-variant:normal;font-weight:normal;font-stretch:normal;font-size:10.58333302px;line-height:1.25;font-family:Gadugi;-inkscape-font-specification:Gadugi;text-align:center;letter-spacing:0px;word-spacing:0px;text-anchor:middle;fill:#000000;fill-opacity:1;stroke:none;stroke-width:0.26458332"
       x="155.89113"
       y="88.840996"
       id="text4569-4"><tspan
         sodipodi:role="line"
         id="tspan4567-2"
         x="155.89113"
         y="88.840996"
         style="stroke-width:0.26458332">4</tspan></text>
    <path
       style="fill:none;fill-opacity:1;stroke:#000000;stroke-width:0.1;stroke-miterlimit:4;stroke-dasharray:none;stroke-opacity:1"
       d="m 116.77019,96.011123 h 6.7 v 3.1 h 40.9 v 1.999997 h 4.20175 l -0.004,-1.999997 h 1.90175 v 5.499997 h 4.2 v -5.499997 h 1.9 v 1.999997 h 4.2 v -1.999997 h 1.9 v 1.999997 h 4.2 v -1.999997 h 1.9 v 1.999997 h 4.2 v -1.999997 h 1.9 v 1.999997 h 4.2 v -1.999997 h 3 v -3.1 h 4.9 l -0.14978,14.899997 h -21.42522 v 4 h -5.80001 v -4 h -56.12499 v 3.05 l -6.7,0.05 z"
       id="rect8361-0-2"
       inkscape:connector-curvature="0"
       sodipodi:nodetypes="ccccccccccccccccccccccccccccccccccccccc" />
    <text
       xml:space="preserve"
       style="font-style:normal;font-variant:normal;font-weight:normal;font-stretch:normal;font-size:10.58333302px;line-height:1.25;font-family:Gadugi;-inkscape-font-specification:Gadugi;text-align:center;letter-spacing:0px;word-spacing:0px;text-anchor:middle;fill:#000000;fill-opacity:1;stroke:none;stroke-width:0.26458332"
       x="155.5172"
       y="108.69128"
       id="text4569-0"><tspan
         sodipodi:role="line"
         id="tspan4567-22"
         x="155.5172"
         y="108.69128"
         style="stroke-width:0.26458332">3</tspan></text>
    <path
       style="fill:none;fill-opacity:1;stroke:#000000;stroke-width:0.1;stroke-miterlimit:4;stroke-dasharray:none;stroke-opacity:1"
       d="m 0,224 h 12.2 v -3.2 h 12 v 3.2 h 12.2 v -3.2 h 12 v 3.2 h 12.2 v -3.2 h 12 v 3.2 h 12 v 73 l -12,0 v 3.2 h -12 V 297 H 48.4 v 3.2 h -12 V 297 H 24.2 v 3.2 h -12 V 297 L 0,296.975 Z"
       id="rect8361-8-4"
       inkscape:connector-curvature="0"
       sodipodi:nodetypes="ccccccccccccccccccccccccccccc" />
  </g>
</svg>
